<svg xmlns="http://www.w3.org/2000/svg" viewBox="0 0 32 32">
  <rect width="32" height="32" rx="6" fill="#1A2332"/>
  <path d="M16 5 L17.5 6 L19 5.7 L20.5 6.5 L21.8 6.2 L23 7 L24 8 L24.3 10 L24 12.2 L24.6 14.4 L24.3 16.6 L23.7 18.8 L23 21 L22 23 L20.5 24.5 L18.5 25.8 L16.5 26.8 L16 27 L15.5 26.8 L13.5 25.8 L11.5 24.5 L10 23 L9 21 L8.3 18.8 L7.7 16.6 L7.4 14.4 L8 12.2 L7.7 10 L8 8 L9 7 L10.2 6.2 L11.5 6.5 L13 5.7 L14.5 6 Z"
        fill="none" stroke="#0d9488" stroke-width="1.2"/>
  <line x1="6" y1="16" x2="26" y2="16" stroke="#0d9488" stroke-width="0.8"/>
  <circle cx="7" cy="16" r="1" fill="#f97316"/>
  <circle cx="25" cy="16" r="1" fill="#f97316"/>
</svg>
